<svg width="19" height="20" viewBox="0 0 19 20" fill="none" xmlns="http://www.w3.org/2000/svg">
<path d="M11.2667 3.73333C11.2667 3.55556 11.2111 3.41111 11.1 3.3C10.9889 3.18889 10.8444 3.13333 10.6667 3.13333H4.4C4.22222 3.13333 4.07778 3.18889 3.96667 3.3C3.85556 3.41111 3.8 3.55556 3.8 3.73333V8.73333C3.8 8.91111 3.85556 9.06667 3.96667 9.2C4.07778 9.33333 4.22222 9.4 4.4 9.4H10.6667C10.8444 9.4 10.9889 9.33333 11.1 9.2C11.2111 9.06667 11.2667 8.91111 11.2667 8.73333V3.73333ZM10 8.13333H5V4.4H10V8.13333ZM18.4667 4.4L15.9333 3.2C15.8 3.11111 15.6444 3.08889 15.4667 3.13333C15.2889 3.17778 15.1667 3.27778 15.1 3.43333C15.0333 3.58889 15.0222 3.75555 15.0667 3.93333C15.1111 4.11111 15.2222 4.22222 15.4 4.26667L16.3333 4.8L16.2667 5C16.2667 5.4 16.3889 5.75556 16.6333 6.06667C16.8778 6.37778 17.1778 6.6 17.5333 6.73333V14.3333C17.5333 14.5111 17.4667 14.6667 17.3333 14.8C17.2 14.9333 17.0556 15 16.9 15C16.7444 15 16.6 14.9333 16.4667 14.8C16.3333 14.6667 16.2667 14.5111 16.2667 14.3333V9.33333C16.2667 8.62222 16.0111 7.97778 15.5 7.4C14.9889 6.82222 14.4222 6.46667 13.8 6.33333V2.46667C13.8 1.8 13.5556 1.22222 13.0667 0.733332C12.5778 0.244444 12 -1.90735e-06 11.3333 -1.90735e-06H3.8C3.13333 -1.90735e-06 2.54444 0.244444 2.03333 0.733332C1.52222 1.22222 1.26667 1.8 1.26667 2.46667V16.4667L0.4 16.9333C0.133333 17.0667 0 17.2444 0 17.4667V19.3333C0 19.5111 0.0666667 19.6667 0.2 19.8C0.333333 19.9333 0.488889 20 0.666667 20H14.4C14.5778 20 14.7222 19.9333 14.8333 19.8C14.9444 19.6667 15 19.5111 15 19.3333V17.4667C15 17.2444 14.8889 17.0667 14.6667 16.9333L13.8 16.4667V7.6C14.1111 7.73333 14.3889 7.96667 14.6333 8.3C14.8778 8.63333 15 8.97778 15 9.33333V14.3333C15 14.8667 15.1889 15.3222 15.5667 15.7C15.9444 16.0778 16.3889 16.2667 16.9 16.2667C17.4111 16.2667 17.8556 16.0778 18.2333 15.7C18.6111 15.3222 18.8 14.8667 18.8 14.3333V5C18.8 4.73333 18.6889 4.53333 18.4667 4.4ZM13.8 18.7333H1.26667V17.8667L2.2 17.4C2.42222 17.3111 2.53333 17.1333 2.53333 16.8667V2.46667C2.53333 2.15555 2.65556 1.87778 2.9 1.63333C3.14444 1.38889 3.44444 1.26667 3.8 1.26667H11.3333C11.6444 1.26667 11.9222 1.38889 12.1667 1.63333C12.4111 1.87778 12.5333 2.15555 12.5333 2.46667V16.8667C12.5333 17.1333 12.6444 17.3111 12.8667 17.4L13.8 17.8667V18.7333Z" fill="#282828"/>
</svg>
